<?xml version="1.0" standalone="no"?>
<!DOCTYPE svg PUBLIC "-//W3C//DTD SVG 20010904//EN"
 "http://www.w3.org/TR/2001/REC-SVG-20010904/DTD/svg10.dtd">
<svg version="1.0" xmlns="http://www.w3.org/2000/svg"
 width="131.000000pt" height="155.000000pt" viewBox="0 0 131.000000 155.000000"
 preserveAspectRatio="xMidYMid meet">

<g transform="translate(0.000000,155.000000) scale(0.100000,-0.100000)"
fill="#000000" stroke="none">
<path d="M991 1414 c-62 -56 -166 -209 -220 -325 -83 -178 -147 -405 -177
-629 -20 -150 -19 -190 5 -190 16 0 20 14 31 112 20 184 56 349 106 490 62
172 185 371 289 467 44 40 46 45 40 82 -4 21 -10 39 -15 39 -4 0 -31 -21 -59
-46z"/>
<path d="M160 795 l0 -525 50 0 50 0 0 245 0 245 160 0 160 0 0 45 0 45 -160
0 -160 0 0 235 0 235 -50 0 -50 0 0 -525z"/>
<path d="M1024 1248 c-73 -77 -109 -129 -162 -233 -45 -91 -98 -233 -89 -241
6 -7 227 64 241 77 5 4 6 14 3 23 -5 13 -19 11 -93 -14 -48 -17 -89 -30 -92
-30 -6 0 8 40 36 105 36 85 39 87 73 70 36 -19 45 -19 53 0 4 11 -5 21 -29 32
-19 9 -35 20 -35 24 0 9 117 166 130 174 9 5 14 -16 25 -95 12 -90 16 -100 37
-100 16 0 19 5 14 28 -3 15 -10 63 -16 107 -15 110 -20 135 -29 135 -4 0 -35
-28 -67 -62z"/>
</g>
</svg>
